<svg xmlns="http://www.w3.org/2000/svg" xmlns:xlink="http://www.w3.org/1999/xlink" shape-rendering="geometricPrecision" text-rendering="geometricPrecision" viewBox="0 0 260 240"><linearGradient id="a" x1="44.5" x2="94.5" y1="776" y2="727.6" gradientTransform="translate(0 -550)" gradientUnits="userSpaceOnUse"><stop offset="0" stop-color="#3d38bb"/><stop offset="1" stop-color="#152031"/></linearGradient><path fill="url(#a)" d="M75.9 230.2c-7.6 1.4-15.5 3.3-21.2.6-5.7-2.7-9.1-10-11.7-17.4a47 47 0 0 1-3.7-21.1c.9-7.2 4-14 9-19.2 5.2-5.5 12-9.7 18.4-9.1 6.5.7 12.5 6.2 19.6 10 7 3.8 15.2 5.9 19.8 11 4.6 5.3 5.4 13.8 3.4 21.3A30.3 30.3 0 0 1 96.7 224c-6 3.8-13.2 4.7-20.8 6.2z"/><linearGradient id="b" x1="35.3" x2="451.8" y1="694.3" y2="606.1" gradientTransform="translate(0 -550)" gradientUnits="userSpaceOnUse"><stop offset="0" stop-color="#092343"/><stop offset="1" stop-color="#152031"/></linearGradient><path fill="url(#b)" d="M231.8 160c-1.2-6.2-2.8-12.5-4.9-18.5-5.9-17.2-23.3-32.1-27-49.6-1.3-6.3 10.5-17 10-23.7-1.5-18.3-4.5-32.7-12.7-45.6-11.2-18-59.7-18.8-82-14.3-22.4 4.7-41.3 15-52 32.8-10.7 18-13 37.2-19.6 55.6C37 115 26 132.4 29.2 146.3c3.2 13.9 20.3 24.3 36.4 37.2 16 13.1 30.8 29.8 54.8 40.6 22.6 10.2 54.6 14.3 73.3 3.6 19-10.5 43-41.8 38.1-67.6z"/><path fill="#0F91FF" fill-opacity=".1" d="M231.6 160c-1.2-6.2-2.8-12.5-4.9-18.5-5.9-17.2-23.3-32.1-27-49.6-1.3-6.3 10.5-17 10-23.7-1.5-18.3-4.5-32.7-12.7-45.6-11.2-18-59.7-18.8-82-14.3C92.6 13 73.7 23.3 63 41 52.3 59 50 78.2 43.4 96.6 36.9 115 25.9 132.3 29 146.2c3.2 13.9 20.3 24.3 36.4 37.2 16 13.1 30.8 29.8 54.8 40.6 22.6 10.2 54.6 14.3 73.3 3.6 18.8-10.5 43-41.8 38.1-67.6z"/><linearGradient id="c" x1="215.7" x2="176.7" y1="591.2" y2="643" gradientTransform="translate(0 -550)" gradientUnits="userSpaceOnUse"><stop offset="0" stop-color="#1e84fe"/><stop offset="1" stop-color="#3d38bb"/></linearGradient><path fill="url(#c)" d="M186.8 97.3c-14.6-5.3-28-16.1-29.6-29.8S166 37 181 32.9c15.1-4 35.1 4.6 44.6 18.3 9.4 13.7 8.3 32.3 0 41.7-8.5 9.3-24.2 9.6-38.8 4.4z"/><path fill="none" stroke="#D6D6D6" stroke-dasharray="2 12" stroke-linecap="round" stroke-linejoin="round" stroke-width="4" d="M166.6 174.8c-47.6 28.5-25-24-61-10C66 180 66.5 149.9 77.3 127.6"/><linearGradient id="d" x1="76.2" x2="76.2" y1="587.6" y2="682.9" gradientTransform="translate(-.4 -550)" gradientUnits="userSpaceOnUse"><stop offset="0" stop-color="#2697fc"/><stop offset="1" stop-color="#4e51c6"/></linearGradient><path fill="url(#d)" d="M128.8 37.6v93.7c0 .8-.7 1.5-1.5 1.6H24.4c-.8 0-1.5-.7-1.6-1.6V37.6"/><path fill="#152031" d="M128.8 38.6h-106V28.3c.1-.8.7-1.5 1.6-1.6h102.9c.7.1 1.4.7 1.5 1.6v10.3z"/><circle cx="29.9" cy="32.7" r="2" fill="#0795FF"/><circle cx="37.8" cy="32.7" r="2" fill="#0795FF"/><path fill="#F0EFEF" d="M17.3 48.1h58.9c1.8 0 3.3 1.5 3.3 3.3v33.9c0 1.8-1.5 3.3-3.3 3.3H17.3a3.3 3.3 0 0 1-3.3-3.3V51.4c.1-1.8 1.5-3.3 3.3-3.3z"/><linearGradient id="e" x1="201.1" x2="231.8" y1="-320.2" y2="-320.2" gradientTransform="rotate(90 -61.4 -211.9)" gradientUnits="userSpaceOnUse"><stop offset="0" stop-color="#2697fc"/><stop offset=".5" stop-color="#2795fb"/><stop offset=".7" stop-color="#2b8ef5"/><stop offset=".8" stop-color="#3283ec"/><stop offset=".9" stop-color="#3b72df"/><stop offset="1" stop-color="#485cce"/><stop offset="1" stop-color="#4e51c6"/></linearGradient><path fill="url(#e)" d="M77.3 51v29.3c0 .4-.3.6-.6.6H17.2c-.4 0-.6-.3-.6-.6V50.9c0-.4.3-.6.6-.6h59.4c.4 0 .7.3.7.6z"/><path fill="#F0EFEF" d="M38.6 90.7h15.3c2 0 3.8 1.7 3.8 3.8v.6h-23v-.6c0-2.1 1.8-3.8 3.9-3.8z"/><path fill="#F0EFEF" d="M39.1 87.5h15.3v5.1H39.1z"/><path fill="#1E84FE" d="M48.7 84.7c0 1.4-1.1 2.5-2.5 2.5s-2.5-1.1-2.5-2.5a2.5 2.5 0 0 1 4.2-1.8c.4.4.8 1.2.8 1.8z"/><path fill="#F0EFEF" d="M47.6 84.7c0 .6-.3 1-.8 1.3-.5.2-1.1 0-1.5-.3-.4-.4-.5-1-.3-1.5s.7-.8 1.3-.8c.7 0 1.3.6 1.3 1.3zm28.6-8.1H135c1.8 0 3.3 1.5 3.3 3.3v33.8c0 1.8-1.5 3.3-3.3 3.3H76.2a3.3 3.3 0 0 1-3.3-3.3v-34a3.3 3.3 0 0 1 3.3-3.1z"/><linearGradient id="f" x1="201.1" x2="231.9" y1="-320.2" y2="-320.2" gradientTransform="rotate(90 -46.1 -168.3)" gradientUnits="userSpaceOnUse"><stop offset="0" stop-color="#2697fc"/><stop offset=".5" stop-color="#2795fb"/><stop offset=".7" stop-color="#2b8ef5"/><stop offset=".8" stop-color="#3283ec"/><stop offset=".9" stop-color="#3b72df"/><stop offset="1" stop-color="#485cce"/><stop offset="1" stop-color="#4e51c6"/></linearGradient><path fill="url(#f)" d="M136.1 79.4v29.3c0 .4-.3.6-.6.6H76.1c-.4 0-.6-.3-.6-.6V79.4c0-.4.3-.6.6-.6h59.4c.3-.1.6.2.6.6z"/><path fill="#F0EFEF" d="M97.4 119.1h15.3c2 0 3.8 1.7 3.8 3.8v.6H93.7v-.6c0-2 1.7-3.8 3.7-3.8z"/><path fill="#F0EFEF" d="M98 115.9h15.3v5.1H98z"/><path fill="#1E84FE" d="M107.6 113.1c0 1.4-1.1 2.5-2.5 2.5s-2.5-1-2.5-2.5 1-2.5 2.5-2.5c.7 0 1.3.3 1.7.7.4.4.8 1.1.8 1.8z"/><path fill="#F0EFEF" d="M106.5 113.1c0 .6-.3 1-.8 1.3-.5.2-1.1.1-1.5-.3-.4-.4-.5-1-.3-1.5s.7-.8 1.3-.8c.7-.1 1.3.5 1.3 1.3z"/><defs><path id="g" d="M65.3 42.1h52.5v38.7H65.3z"/></defs><clipPath id="h"><use xlink:href="#g" overflow="visible"/></clipPath><g fill="none" stroke-miterlimit="10" clip-path="url(#h)"><path stroke="#1E84FE" stroke-width="3.6" d="M104.5 93.7c0-1.8 2-3.7 1.7-5.4-.3-1.8-2.8-3-3.4-4.5-.6-1.7.6-4.2-.3-5.7-1-1.5-3.7-1.7-4.8-3.1s-1-4.1-2.2-5.2c-1.3-1.1-4-.4-5.6-1.3-1.5-1-2.2-3.6-4-4.3-1.5-.6-3.8 1-5.6.8-1.7-.3-3.3-2.7-5.1-2.7S71.8 64.7 70 65c-1.8.3-4-1.4-5.7-.8-1.7.7-2.4 3.4-4 4.3-1.4.9-4.1.2-5.5 1.3-1.4 1-1.1 3.9-2.2 5.2s-4 1.6-4.8 3 .3 4-.3 5.8c-.6 1.6-3.1 2.8-3.4 4.5s1.7 3.7 1.7 5.4c0 1.8-2 3.7-1.7 5.4.3 1.8 2.8 2.9 3.4 4.5.6 1.7-.6 4.2.3 5.7.9 1.5 3.7 1.7 4.8 3.1 1 1.4.9 4.1 2.2 5.2 1.3 1.1 4 .4 5.6 1.3 1.5 1 2.2 3.6 3.9 4.2 1.6.6 3.9-1 5.7-.7 1.7.3 3.3 2.6 5 2.6 1.9 0 3.5-2.3 5.2-2.6 1.8-.3 4 1.3 5.7.7 1.7-.6 2.4-3.3 3.9-4.2 1.5-.9 4.2-.2 5.6-1.3 1.4-1 1-3.9 2.2-5.2 1-1.3 3.9-1.6 4.8-3.1.9-1.5-.3-4 .3-5.7.6-1.6 3-2.8 3.4-4.5.2-1.6-1.7-3.6-1.7-5.4z"/><path stroke="#F0EFEF" stroke-width="5" d="M107.7 93.7c0-2 2-4.1 1.6-6-.3-2-3-3.3-3.6-5.1s.4-4.5-.5-6.2c-1-1.7-4-2.1-5.1-3.6-1.3-1.5-1.1-4.4-2.6-5.6-1.5-1.3-4.3-.6-6-1.6-1.7-1-2.5-3.8-4.4-4.5-1.8-.7-4.3 1-6.2.6-2-.3-3.6-2.6-5.6-2.6s-3.7 2.3-5.6 2.6c-2 .3-4.4-1.2-6.2-.6-1.8.7-2.7 3.5-4.4 4.5-1.7 1-4.5.4-6 1.6-1.5 1.3-1.4 4-2.6 5.6-1.3 1.5-4.1 1.9-5.1 3.6-1 1.7 0 4.4-.5 6.2-.7 1.8-3.2 3-3.6 5-.3 2 1.6 4 1.6 6s-2 4.2-1.6 6c.3 2 2.9 3.4 3.6 5.2.7 1.8-.4 4.5.5 6.2 1 1.7 3.9 2.1 5 3.6 1.4 1.5 1.2 4.4 2.7 5.6 1.5 1.3 4.3.6 6 1.6 1.7 1 2.5 3.7 4.4 4.4 1.8.7 4.3-.9 6.2-.6 1.9.3 3.6 2.6 5.6 2.6s3.7-2.3 5.6-2.6 4.4 1.2 6.2.6c1.8-.7 2.7-3.4 4.4-4.4 1.7-1 4.5-.4 6-1.6 1.5-1.3 1.4-4 2.6-5.6 1.3-1.5 4-1.9 5-3.6 1-1.7 0-4.4.6-6.2.7-1.8 3.2-3.1 3.6-5.1.3-2-1.6-4-1.6-6z"/></g><path fill="#F0EFEF" d="M64 77.7H23.4c-.8 0-1.5-.6-1.5-1.4V55c0-.8.7-1.5 1.5-1.4H64c.8 0 1.5.6 1.5 1.4v21.2c0 .8-.7 1.5-1.5 1.5z"/><path fill="#AAA" d="M34 73.9c0 .9-.8 1.6-1.6 1.6h-5.6c-.9 0-1.6-.7-1.6-1.6v-5.5c0-1 .7-1.6 1.5-1.6h5.6c1 0 1.6.7 1.6 1.6v5.5zm28.2-11c0 1-.7 1.7-1.5 1.7h-34c-.9 0-1.6-.8-1.6-1.7v-5.5c0-.9.7-1.6 1.5-1.6h34c1 0 1.6.7 1.6 1.6V63z"/><path fill="none" stroke="#ADADAD" stroke-linecap="round" stroke-linejoin="round" stroke-width="1.6" d="M37.2 67.8h24m-24 3.3h24m-24 3.3h24"/><path fill="#F0EFEF" d="M126.3 104.6H85.7c-.8 0-1.5-.6-1.5-1.4V82c0-.8.7-1.5 1.5-1.4h40.6c.8 0 1.5.6 1.5 1.4v21.2c0 .8-.7 1.4-1.5 1.4z"/><path fill="#AAA" d="M96.2 100.8c0 .9-.7 1.6-1.5 1.6H89c-1 0-1.6-.7-1.6-1.6v-5.5c0-1 .7-1.6 1.5-1.6h5.6c.9 0 1.6.7 1.6 1.6v5.5zm28.4-11c0 1-.7 1.7-1.5 1.7H89c-1 0-1.6-.7-1.6-1.6v-5.6c0-.9.7-1.6 1.5-1.6h34c.9 0 1.6.7 1.6 1.6V90z"/><path fill="none" stroke="#ADADAD" stroke-linecap="round" stroke-linejoin="round" stroke-width="1.6" d="M99.5 94.8h24m-24 3.3h24m-24 3.2h24"/><linearGradient id="i" x1="202" x2="202" y1="687.6" y2="759.8" gradientTransform="translate(0 -550)" gradientUnits="userSpaceOnUse"><stop offset="0" stop-color="#2697fc"/><stop offset="1" stop-color="#4e51c6"/></linearGradient><path fill="url(#i)" d="M242 137.6v71c0 .6-.6 1.2-1.2 1.2h-77.6c-.6 0-1-.6-1.2-1.2v-71"/><path fill="#FFFEFE" d="M242 138.6h-80v-7.8c0-.6.6-1.2 1.2-1.2h77.6c.6 0 1.2.6 1.2 1.2v7.8z"/><circle cx="167.1" cy="134.1" r="1.5" fill="#0795FF"/><circle cx="173" cy="134.1" r="1.5" fill="#0795FF"/><linearGradient id="j" x1="226.8" x2="177.9" y1="738.8" y2="744.8" gradientTransform="translate(0 -550)" gradientUnits="userSpaceOnUse"><stop offset=".5" stop-color="#03152c"/><stop offset=".8" stop-color="#03152a"/><stop offset=".9" stop-color="#031523"/><stop offset="1" stop-color="#031517"/><stop offset="1" stop-color="#03150e"/></linearGradient><path fill="url(#j)" d="M177 185.5v7c0 4.5 11.1 8.2 25 8.2 14 0 25.1-3.7 25.1-8.2v-7H177z"/><ellipse cx="202" cy="185.5" fill="#303030" rx="25.1" ry="8.1"/><linearGradient id="k" x1="226.8" x2="177.9" y1="723.6" y2="729.6" gradientTransform="translate(0 -550)" gradientUnits="userSpaceOnUse"><stop offset=".5" stop-color="#1e84fe"/><stop offset=".7" stop-color="#1d83fc"/><stop offset=".8" stop-color="#1c7ff5"/><stop offset=".8" stop-color="#1b79e9"/><stop offset=".9" stop-color="#1970d8"/><stop offset=".9" stop-color="#1664c2"/><stop offset=".9" stop-color="#1256a7"/><stop offset=".9" stop-color="#0e4586"/><stop offset="1" stop-color="#093161"/><stop offset="1" stop-color="#041b38"/><stop offset="1" stop-color="#03152c"/></linearGradient><path fill="url(#k)" d="M177 170.3v7c0 4.5 11.1 8.2 25 8.2 14 0 25.1-3.7 25.1-8.2v-7H177z"/><ellipse cx="202" cy="170.3" fill="#36A2FF" rx="25.1" ry="8.1"/><linearGradient id="l" x1="226.8" x2="177.9" y1="708.4" y2="714.4" gradientTransform="translate(0 -550)" gradientUnits="userSpaceOnUse"><stop offset=".5" stop-color="#eeeefe"/><stop offset=".7" stop-color="#ececfc"/><stop offset=".8" stop-color="#e5e5f6"/><stop offset=".8" stop-color="#d9dbeb"/><stop offset=".9" stop-color="#c8cbdc"/><stop offset=".9" stop-color="#b2b7c8"/><stop offset=".9" stop-color="#979db0"/><stop offset=".9" stop-color="#768093"/><stop offset="1" stop-color="#515d71"/><stop offset="1" stop-color="#28374d"/><stop offset="1" stop-color="#03152c"/></linearGradient><path fill="url(#l)" d="M177 155v7c0 4.6 11.1 8.3 25 8.3 14 0 25.1-3.7 25.1-8.2v-7H177z"/><ellipse cx="202" cy="155.1" fill="#ECECFC" rx="25.1" ry="8"/></svg>